<?xml version="1.0" encoding="UTF-8" standalone="no"?>
<!DOCTYPE svg PUBLIC "-//W3C//DTD SVG 1.1//EN"
 "http://www.w3.org/Graphics/SVG/1.1/DTD/svg11.dtd">
<!-- Generated by graphviz version 2.40.1 (0)
 -->
<!-- Title: xray Pages: 1 -->
<svg width="1044pt" height="451pt"
 viewBox="0.00 0.00 1044.26 451.00" xmlns="http://www.w3.org/2000/svg" xmlns:xlink="http://www.w3.org/1999/xlink">
<g id="graph0" class="graph" transform="scale(1 1) rotate(0) translate(4 447)">
<title>xray</title>
<polygon fill="#ffffff" stroke="transparent" points="-4,4 -4,-447 1040.2641,-447 1040.2641,4 -4,4"/>
<!-- F3 -->
<g id="node1" class="node">
<title>F3</title>
<ellipse fill="none" stroke="#000000" cx="138.1321" cy="-338" rx="34.394" ry="18"/>
<text text-anchor="middle" x="138.1321" y="-334.3" font-family="Times-Roman" font-size="14.00" fill="#000000">main</text>
</g>
<!-- F0 -->
<g id="node2" class="node">
<title>F0</title>
<ellipse fill="none" stroke="#000000" cx="432.1321" cy="-425" rx="27" ry="18"/>
<text text-anchor="middle" x="432.1321" y="-421.3" font-family="Times-Roman" font-size="14.00" fill="#000000">F0</text>
</g>
<!-- F0&#45;&gt;F3 -->
<g id="edge1" class="edge">
<title>F0&#45;&gt;F3</title>
<path fill="none" stroke="#7f0000" d="M404.9904,-423.6592C335.7628,-419.9656 156.8134,-408.5963 139.1321,-389 133.6259,-382.8975 131.9808,-374.5164 132.1209,-366.311"/>
<polygon fill="#7f0000" stroke="#7f0000" points="135.6202,-366.4862 133.0968,-356.1962 128.6525,-365.8139 135.6202,-366.4862"/>
<text text-anchor="middle" x="189.1321" y="-377.8" font-family="Times-Roman" font-size="14.00" fill="#000000">9.437055e&#45;02</text>
</g>
<!-- F6 -->
<g id="node3" class="node">
<title>F6</title>
<ellipse fill="none" stroke="#000000" cx="202.1321" cy="-251" rx="202.2642" ry="18"/>
<text text-anchor="middle" x="202.1321" y="-247.3" font-family="Times-Roman" font-size="14.00" fill="#000000">std::thread::_State_impl&lt;std::thread::_I...</text>
</g>
<!-- F0&#45;&gt;F6 -->
<g id="edge2" class="edge">
<title>F0&#45;&gt;F6</title>
<path fill="none" stroke="#fff7ec" d="M410.7651,-413.6835C387.2577,-400.8701 348.7504,-378.7954 318.1321,-356 284.8536,-331.2241 249.9936,-298.6366 227.2848,-276.3776"/>
<polygon fill="#fff7ec" stroke="#fff7ec" points="229.6435,-273.788 220.0692,-269.2511 224.7246,-278.7684 229.6435,-273.788"/>
<text text-anchor="middle" x="368.1321" y="-334.3" font-family="Times-Roman" font-size="14.00" fill="#000000">1.120000e&#45;07</text>
</g>
<!-- F4 -->
<g id="node4" class="node">
<title>F4</title>
<ellipse fill="none" stroke="#000000" cx="374.1321" cy="-164" rx="202.2642" ry="18"/>
<text text-anchor="middle" x="374.1321" y="-160.3" font-family="Times-Roman" font-size="14.00" fill="#000000">std::thread::_State_impl&lt;std::thread::_I...</text>
</g>
<!-- F0&#45;&gt;F4 -->
<g id="edge3" class="edge">
<title>F0&#45;&gt;F4</title>
<path fill="none" stroke="#fff7ec" d="M432.7965,-406.7678C433.5282,-372.0602 432.5899,-294.4742 413.1321,-233 408.4207,-218.1153 400.2247,-202.8708 392.5584,-190.5092"/>
<polygon fill="#fff7ec" stroke="#fff7ec" points="395.4801,-188.5816 387.1271,-182.064 389.5925,-192.368 395.4801,-188.5816"/>
<text text-anchor="middle" x="478.1321" y="-290.8" font-family="Times-Roman" font-size="14.00" fill="#000000">2.000000e&#45;07</text>
</g>
<!-- F5 -->
<g id="node5" class="node">
<title>F5</title>
<ellipse fill="none" stroke="#000000" cx="604.1321" cy="-91" rx="202.2642" ry="18"/>
<text text-anchor="middle" x="604.1321" y="-87.3" font-family="Times-Roman" font-size="14.00" fill="#000000">std::thread::_State_impl&lt;std::thread::_I...</text>
</g>
<!-- F0&#45;&gt;F5 -->
<g id="edge4" class="edge">
<title>F0&#45;&gt;F5</title>
<path fill="none" stroke="#fddcae" d="M459.386,-423.4186C507.8853,-418.9748 604.1321,-402.0831 604.1321,-338 604.1321,-338 604.1321,-338 604.1321,-164 604.1321,-149.2996 604.1321,-132.934 604.1321,-119.4302"/>
<polygon fill="#fddcae" stroke="#fddcae" points="607.6322,-119.3003 604.1321,-109.3003 600.6322,-119.3004 607.6322,-119.3003"/>
<text text-anchor="middle" x="654.1321" y="-247.3" font-family="Times-Roman" font-size="14.00" fill="#000000">3.863029e&#45;03</text>
</g>
<!-- F7 -->
<g id="node6" class="node">
<title>F7</title>
<ellipse fill="none" stroke="#000000" cx="834.1321" cy="-18" rx="202.2642" ry="18"/>
<text text-anchor="middle" x="834.1321" y="-14.3" font-family="Times-Roman" font-size="14.00" fill="#000000">std::thread::_State_impl&lt;std::thread::_I...</text>
</g>
<!-- F0&#45;&gt;F7 -->
<g id="edge5" class="edge">
<title>F0&#45;&gt;F7</title>
<path fill="none" stroke="#fdd6a2" d="M458.8197,-422.0806C548.6047,-411.9045 834.1321,-376.5154 834.1321,-338 834.1321,-338 834.1321,-338 834.1321,-91 834.1321,-76.2996 834.1321,-59.934 834.1321,-46.4302"/>
<polygon fill="#fdd6a2" stroke="#fdd6a2" points="837.6322,-46.3003 834.1321,-36.3003 830.6322,-46.3004 837.6322,-46.3003"/>
<text text-anchor="middle" x="884.1321" y="-203.8" font-family="Times-Roman" font-size="14.00" fill="#000000">5.316274e&#45;03</text>
</g>
</g>
</svg>
